{
	"asset":{
		"generator":"Khronos glTF Blender I/O v4.5.49",
		"version":"2.0"
	},
	"scene":0,
	"scenes":[
		{
			"name":"Scene",
			"nodes":[
				0,
				1,
				2,
				3
			]
		}
	],
	"nodes":[
		{
			"mesh":0,
			"name":"Cube.001",
			"rotation":[
				0,
				0,
				-1,
				0
			],
			"scale":[
				-10,
				-10,
				-1
			],
			"translation":[
				0,
				10,
				0
			]
		},
		{
			"mesh":1,
			"name":"Cube.002",
			"scale":[
				10,
				10,
				1
			],
			"translation":[
				0,
				10,
				-20
			]
		},
		{
			"mesh":2,
			"name":"Cube.003",
			"rotation":[
				0,
				0.7071068286895752,
				0,
				0.7071068286895752
			],
			"scale":[
				10,
				10,
				1
			],
			"translation":[
				10,
				10,
				-10
			]
		},
		{
			"mesh":3,
			"name":"Cube.004",
			"translation":[
				-0.5,
				10,
				-8.5
			]
		}
	],
	"materials":[
		{
			"doubleSided":true,
			"name":"Material.001",
			"pbrMetallicRoughness":{
				"baseColorFactor":[
					0.8002194166183472,
					0,
					0.0016136490739881992,
					1
				],
				"metallicFactor":0,
				"roughnessFactor":0.3015872836112976
			}
		},
		{
			"doubleSided":true,
			"name":"Material.003",
			"pbrMetallicRoughness":{
				"baseColorFactor":[
					0.131514310836792,
					0,
					0.8002825975418091,
					1
				],
				"metallicFactor":0,
				"roughnessFactor":0.5
			}
		},
		{
			"doubleSided":true,
			"name":"Material.004",
			"pbrMetallicRoughness":{
				"baseColorFactor":[
					0.800000011920929,
					0.800000011920929,
					0.800000011920929,
					1
				],
				"metallicFactor":0,
				"roughnessFactor":0.5
			}
		}
	],
	"meshes":[
		{
			"name":"Cube.001",
			"primitives":[
				{
					"attributes":{
						"POSITION":0,
						"NORMAL":1,
						"TEXCOORD_0":2
					},
					"indices":3,
					"material":0
				}
			]
		},
		{
			"name":"Cube.002",
			"primitives":[
				{
					"attributes":{
						"POSITION":4,
						"NORMAL":5,
						"TEXCOORD_0":6
					},
					"indices":7,
					"material":1
				},
				{
					"attributes":{
						"POSITION":8,
						"NORMAL":9,
						"TEXCOORD_0":10
					},
					"indices":11,
					"material":0
				}
			]
		},
		{
			"name":"Cube.003",
			"primitives":[
				{
					"attributes":{
						"POSITION":12,
						"NORMAL":13,
						"TEXCOORD_0":14
					},
					"indices":3,
					"material":1
				}
			]
		},
		{
			"name":"Cube.004",
			"primitives":[
				{
					"attributes":{
						"POSITION":15,
						"NORMAL":16,
						"TEXCOORD_0":17
					},
					"indices":18,
					"material":2
				}
			]
		}
	],
	"accessors":[
		{
			"bufferView":0,
			"componentType":5126,
			"count":36,
			"max":[
				1,
				1,
				0
			],
			"min":[
				-1,
				-1,
				-1
			],
			"type":"VEC3"
		},
		{
			"bufferView":1,
			"componentType":5126,
			"count":36,
			"type":"VEC3"
		},
		{
			"bufferView":2,
			"componentType":5126,
			"count":36,
			"type":"VEC2"
		},
		{
			"bufferView":3,
			"componentType":5123,
			"count":66,
			"type":"SCALAR"
		},
		{
			"bufferView":4,
			"componentType":5126,
			"count":22,
			"max":[
				1,
				1,
				0
			],
			"min":[
				-1,
				-1,
				-1
			],
			"type":"VEC3"
		},
		{
			"bufferView":5,
			"componentType":5126,
			"count":22,
			"type":"VEC3"
		},
		{
			"bufferView":6,
			"componentType":5126,
			"count":22,
			"type":"VEC2"
		},
		{
			"bufferView":7,
			"componentType":5123,
			"count":42,
			"type":"SCALAR"
		},
		{
			"bufferView":8,
			"componentType":5126,
			"count":16,
			"max":[
				1,
				1,
				0
			],
			"min":[
				-1,
				-1,
				-1
			],
			"type":"VEC3"
		},
		{
			"bufferView":9,
			"componentType":5126,
			"count":16,
			"type":"VEC3"
		},
		{
			"bufferView":10,
			"componentType":5126,
			"count":16,
			"type":"VEC2"
		},
		{
			"bufferView":11,
			"componentType":5123,
			"count":24,
			"type":"SCALAR"
		},
		{
			"bufferView":12,
			"componentType":5126,
			"count":36,
			"max":[
				1,
				1,
				0
			],
			"min":[
				-1,
				-1,
				-1
			],
			"type":"VEC3"
		},
		{
			"bufferView":13,
			"componentType":5126,
			"count":36,
			"type":"VEC3"
		},
		{
			"bufferView":14,
			"componentType":5126,
			"count":36,
			"type":"VEC2"
		},
		{
			"bufferView":15,
			"componentType":5126,
			"count":38,
			"max":[
				9.500000953674316,
				0.7142848968505859,
				8.571430206298828
			],
			"min":[
				-9.5,
				-0.28571510314941406,
				-11.428570747375488
			],
			"type":"VEC3"
		},
		{
			"bufferView":16,
			"componentType":5126,
			"count":38,
			"type":"VEC3"
		},
		{
			"bufferView":17,
			"componentType":5126,
			"count":38,
			"type":"VEC2"
		},
		{
			"bufferView":18,
			"componentType":5123,
			"count":66,
			"type":"SCALAR"
		}
	],
	"bufferViews":[
		{
			"buffer":0,
			"byteLength":432,
			"byteOffset":0,
			"target":34962
		},
		{
			"buffer":0,
			"byteLength":432,
			"byteOffset":432,
			"target":34962
		},
		{
			"buffer":0,
			"byteLength":288,
			"byteOffset":864,
			"target":34962
		},
		{
			"buffer":0,
			"byteLength":132,
			"byteOffset":1152,
			"target":34963
		},
		{
			"buffer":0,
			"byteLength":264,
			"byteOffset":1284,
			"target":34962
		},
		{
			"buffer":0,
			"byteLength":264,
			"byteOffset":1548,
			"target":34962
		},
		{
			"buffer":0,
			"byteLength":176,
			"byteOffset":1812,
			"target":34962
		},
		{
			"buffer":0,
			"byteLength":84,
			"byteOffset":1988,
			"target":34963
		},
		{
			"buffer":0,
			"byteLength":192,
			"byteOffset":2072,
			"target":34962
		},
		{
			"buffer":0,
			"byteLength":192,
			"byteOffset":2264,
			"target":34962
		},
		{
			"buffer":0,
			"byteLength":128,
			"byteOffset":2456,
			"target":34962
		},
		{
			"buffer":0,
			"byteLength":48,
			"byteOffset":2584,
			"target":34963
		},
		{
			"buffer":0,
			"byteLength":432,
			"byteOffset":2632,
			"target":34962
		},
		{
			"buffer":0,
			"byteLength":432,
			"byteOffset":3064,
			"target":34962
		},
		{
			"buffer":0,
			"byteLength":288,
			"byteOffset":3496,
			"target":34962
		},
		{
			"buffer":0,
			"byteLength":456,
			"byteOffset":3784,
			"target":34962
		},
		{
			"buffer":0,
			"byteLength":456,
			"byteOffset":4240,
			"target":34962
		},
		{
			"buffer":0,
			"byteLength":304,
			"byteOffset":4696,
			"target":34962
		},
		{
			"buffer":0,
			"byteLength":132,
			"byteOffset":5000,
			"target":34963
		}
	],
	"buffers":[
		{
			"byteLength":5132,
			"uri":"Scene.bin"
		}
	]
}
